<svg width="29" height="28" viewBox="0 0 29 28" fill="none" xmlns="http://www.w3.org/2000/svg">
<path fill-rule="evenodd" clip-rule="evenodd" d="M22.7833 22.3533C23.4717 21.3033 23.7283 20.7667 24.2533 19.5883C20.38 18.1183 19.7617 12.6 23.5883 10.4883C22.4217 9.01832 20.7767 8.16666 19.225 8.16666C18.105 8.16666 17.335 8.45834 16.6466 8.72668C16.0633 8.94834 15.5383 9.14666 14.885 9.14666C14.185 9.14666 13.5667 8.92501 12.9133 8.69168C12.2017 8.43501 11.455 8.16666 10.5216 8.16666C8.78331 8.16666 6.92832 9.22833 5.74999 11.0483C4.09332 13.615 4.38499 18.4217 7.05666 22.5283C8.01332 23.9983 9.29665 25.6433 10.965 25.6667C11.665 25.6783 12.12 25.4683 12.6217 25.2467C13.1933 24.99 13.8116 24.71 14.8966 24.71C15.9816 24.6983 16.5883 24.99 17.16 25.2467C17.65 25.4683 18.0933 25.6783 18.7817 25.6667C20.4733 25.6433 21.8267 23.8233 22.7833 22.3533Z" fill="black"/>
<path fill-rule="evenodd" clip-rule="evenodd" d="M18.98 2.33334C19.1667 3.61667 18.6417 4.88835 17.9533 5.77502C17.2183 6.73168 15.935 7.47833 14.6983 7.43166C14.4767 6.195 15.0483 4.92332 15.7483 4.07166C16.53 3.13832 17.8483 2.415 18.98 2.33334Z" fill="black"/>
</svg>
