<svg width="6" height="12" viewBox="0 0 6 12" fill="none" xmlns="http://www.w3.org/2000/svg">
<path d="M0.521663 12.0001C0.389066 12.0001 0.25647 11.9517 0.151788 11.8478C-0.0505961 11.6471 -0.0505961 11.3149 0.151788 11.1142L4.70195 6.60141C5.03693 6.26918 5.03693 5.72931 4.70195 5.39708L0.151788 0.884318C-0.0505961 0.683596 -0.0505961 0.351369 0.151788 0.150648C0.354173 -0.0500734 0.689153 -0.0500734 0.891538 0.150648L5.4417 4.66341C5.79762 5.0164 6 5.49398 6 5.99924C6 6.50451 5.80459 6.98208 5.4417 7.33508L0.891538 11.8478C0.786856 11.9447 0.65426 12.0001 0.521663 12.0001Z" fill="#64676C"/>
</svg>
