<svg width="20" height="20" viewBox="0 0 20 20" fill="none" xmlns="http://www.w3.org/2000/svg">
<path d="M10 16.4583C6.9 16.4583 4.375 13.9333 4.375 10.8333V6.66667C4.375 3.56667 6.9 1.04167 10 1.04167C13.1 1.04167 15.625 3.56667 15.625 6.66667V10.8333C15.625 13.9333 13.1 16.4583 10 16.4583ZM10 2.29167C7.59167 2.29167 5.625 4.25001 5.625 6.66667V10.8333C5.625 13.25 7.59167 15.2083 10 15.2083C12.4083 15.2083 14.375 13.25 14.375 10.8333V6.66667C14.375 4.25001 12.4083 2.29167 10 2.29167Z" fill="#4F4F4F"/>
<path d="M10 18.9583C5.51667 18.9583 1.875 15.3167 1.875 10.8333V9.16667C1.875 8.82501 2.15833 8.54167 2.5 8.54167C2.84167 8.54167 3.125 8.82501 3.125 9.16667V10.8333C3.125 14.625 6.20833 17.7083 10 17.7083C13.7917 17.7083 16.875 14.625 16.875 10.8333V9.16667C16.875 8.82501 17.1583 8.54167 17.5 8.54167C17.8417 8.54167 18.125 8.82501 18.125 9.16667V10.8333C18.125 15.3167 14.4833 18.9583 10 18.9583Z" fill="#4F4F4F"/>
<path d="M12.1751 6.85833C12.1084 6.85833 12.0334 6.84999 11.9584 6.82499C10.6167 6.34166 9.14173 6.34166 7.80006 6.82499C7.48339 6.94166 7.12506 6.77499 7.00839 6.44999C6.89173 6.12499 7.05839 5.76666 7.38339 5.64999C9.00006 5.06666 10.7751 5.06666 12.3917 5.64999C12.7167 5.76666 12.8834 6.12499 12.7667 6.44999C12.6751 6.70833 12.4334 6.85833 12.1751 6.85833Z" fill="#4F4F4F"/>
<path d="M11.4167 9.35833C11.3667 9.35833 11.3083 9.34999 11.25 9.33333C10.3583 9.09166 9.41668 9.09166 8.52501 9.33333C8.18335 9.42499 7.85002 9.22499 7.75835 8.89166C7.66668 8.55833 7.86668 8.21666 8.20002 8.12499C9.30835 7.82499 10.475 7.82499 11.5833 8.12499C11.9167 8.21666 12.1167 8.55833 12.025 8.89166C11.9417 9.18333 11.6917 9.35833 11.4167 9.35833Z" fill="#4F4F4F"/>
</svg>
