<svg width="20" height="20" viewBox="0 0 20 20" fill="none" xmlns="http://www.w3.org/2000/svg">
<path d="M9.24996 18.9583H5.74996C2.49163 18.9583 1.04163 17.5083 1.04163 14.25V10.75C1.04163 7.49167 2.49163 6.04167 5.74996 6.04167H9.24996C12.5083 6.04167 13.9583 7.49167 13.9583 10.75V14.25C13.9583 17.5083 12.5083 18.9583 9.24996 18.9583ZM5.74996 7.29167C3.16663 7.29167 2.29163 8.16667 2.29163 10.75V14.25C2.29163 16.8333 3.16663 17.7083 5.74996 17.7083H9.24996C11.8333 17.7083 12.7083 16.8333 12.7083 14.25V10.75C12.7083 8.16667 11.8333 7.29167 9.24996 7.29167H5.74996Z" fill="#4F4F4F"/>
<path d="M14.25 13.9583H13.3333C12.9916 13.9583 12.7083 13.675 12.7083 13.3333V10.75C12.7083 8.16667 11.8333 7.29167 9.24996 7.29167H6.66663C6.32496 7.29167 6.04163 7.00834 6.04163 6.66667V5.75001C6.04163 2.49167 7.49163 1.04167 10.75 1.04167H14.25C17.5083 1.04167 18.9583 2.49167 18.9583 5.75001V9.25C18.9583 12.5083 17.5083 13.9583 14.25 13.9583ZM13.9583 12.7083H14.25C16.8333 12.7083 17.7083 11.8333 17.7083 9.25V5.75001C17.7083 3.16667 16.8333 2.29167 14.25 2.29167H10.75C8.16663 2.29167 7.29163 3.16667 7.29163 5.75001V6.04167H9.24996C12.5083 6.04167 13.9583 7.49167 13.9583 10.75V12.7083Z" fill="#4F4F4F"/>
</svg>
