<svg width="20" height="20" viewBox="0 0 20 20" fill="none" xmlns="http://www.w3.org/2000/svg">
<path d="M8.50695 17.7103L8.49597 17.7062L8.48485 17.7025C7.74065 17.4584 7.258 16.6169 7.4223 15.8658L7.42634 15.8473L7.42925 15.8286L7.83758 13.2036L7.83763 13.2036L7.83872 13.196C7.8554 13.0792 7.88061 12.7649 7.64155 12.4917L7.62795 12.4762L7.61336 12.4616C7.45176 12.3 7.23414 12.2133 7.00828 12.2133H3.67495C3.03106 12.2133 2.52502 11.9475 2.2402 11.543L2.23879 11.541C1.96191 11.1511 1.88551 10.6102 2.09096 10.0452L2.0943 10.036L2.09735 10.0267L4.08902 3.96005L4.09554 3.9402L4.1007 3.91996C4.33422 3.0048 5.36367 2.20333 6.43328 2.20333H9.59995C9.78251 2.20333 10.0985 2.2325 10.422 2.32025C10.7541 2.41032 11.025 2.54348 11.1865 2.70507L11.2146 2.73312L11.246 2.75737L13.28 4.32821L13.2723 4.33827L11.2046 2.73749C10.9996 2.54847 10.7228 2.42662 10.4826 2.35118C10.212 2.26623 9.90152 2.21333 9.59995 2.21333H6.43328C5.90063 2.21333 5.38473 2.42216 4.98319 2.71935C4.59098 3.00964 4.24479 3.43175 4.1128 3.93442L2.10545 10.0311C1.92846 10.525 1.92809 11.0836 2.25436 11.5362C2.58418 11.999 3.13319 12.2033 3.68328 12.2033H7.01662C7.27261 12.2033 7.50106 12.3105 7.65683 12.4899L7.65761 12.4908C7.8166 12.6731 7.8941 12.9218 7.85361 13.1988L7.43967 15.8563C7.28348 16.6371 7.78684 17.4456 8.50987 17.6929C8.87728 17.827 9.25828 17.7841 9.55226 17.6861C9.84148 17.5897 10.1531 17.4043 10.3442 17.1262L10.3442 17.1263L10.3479 17.1209L13.4174 12.554L13.4241 12.5585L10.352 17.1291L10.3519 17.1294C10.0893 17.5205 9.55301 17.7967 8.99995 17.7967C8.82866 17.7967 8.66016 17.767 8.50695 17.7103Z" fill="#4F4F4F" stroke="#4F4F4F" stroke-width="1.24"/>
<path d="M16.35 15.0833H15.5166C13.975 15.0833 13.225 14.3583 13.225 12.875V4.70833C13.225 3.225 13.975 2.5 15.5166 2.5H16.35C17.8916 2.5 18.6416 3.225 18.6416 4.70833V12.875C18.6416 14.3583 17.8916 15.0833 16.35 15.0833ZM15.5166 3.75C14.6083 3.75 14.475 3.96667 14.475 4.70833V12.875C14.475 13.6167 14.6083 13.8333 15.5166 13.8333H16.35C17.2583 13.8333 17.3916 13.6167 17.3916 12.875V4.70833C17.3916 3.96667 17.2583 3.75 16.35 3.75H15.5166Z" fill="#4F4F4F"/>
</svg>
