<svg width="20" height="20" viewBox="0 0 20 20" fill="none" xmlns="http://www.w3.org/2000/svg">
<path d="M8.81341 17.2949L8.78536 17.2669L8.75397 17.2426L6.71993 15.6718L6.72771 15.6617L8.79947 17.2657C9.0035 17.4486 9.27941 17.568 9.51999 17.6423C9.78878 17.7254 10.0985 17.7783 10.4 17.7783H13.5667C14.0993 17.7783 14.6152 17.5695 15.0168 17.2723C15.409 16.982 15.7552 16.5599 15.8872 16.0572L17.8945 9.96054C18.0715 9.46663 18.0719 8.90804 17.7456 8.45548C17.4158 7.99266 16.8668 7.78834 16.3167 7.78834H12.9833C12.7273 7.78834 12.4989 7.68119 12.3431 7.50181L12.3423 7.50091C12.1834 7.31854 12.1059 7.0699 12.1464 6.79288L12.5603 4.13537C12.7166 3.35384 12.2122 2.54462 11.4882 2.29812C11.1197 2.16563 10.7401 2.20657 10.4437 2.30587C10.1531 2.40323 9.84548 2.58948 9.65577 2.86542L9.65574 2.8654L9.6521 2.87081L6.58064 7.44056L6.57777 7.43864L9.64791 2.87086L9.64837 2.87018C10.0132 2.32575 10.8589 2.04903 11.4883 2.28797L11.5016 2.29302L11.5151 2.29745C12.2593 2.54155 12.742 3.3831 12.5777 4.13418L12.5736 4.15267L12.5707 4.17137L12.1624 6.79637L12.1623 6.79636L12.1612 6.80399C12.1446 6.92077 12.1194 7.23507 12.3584 7.50827L12.372 7.52381L12.3866 7.53841C12.5482 7.70001 12.7658 7.78667 12.9917 7.78667H16.325C16.9689 7.78667 17.4749 8.05253 17.7598 8.45699L17.7612 8.45898C18.0381 8.84888 18.1144 9.38981 17.909 9.95479L17.9057 9.96398L17.9026 9.97328L15.9109 16.0399L15.9044 16.0598L15.8993 16.08C15.6655 16.9961 14.6436 17.7967 13.5667 17.7967H10.4C10.2174 17.7967 9.90147 17.7675 9.57793 17.6797C9.24585 17.5897 8.97501 17.4565 8.81341 17.2949Z" fill="#4F4F4F" stroke="#4F4F4F" stroke-width="1.24"/>
<path d="M4.48328 17.5H3.64994C2.10828 17.5 1.35828 16.775 1.35828 15.2917V7.12501C1.35828 5.64167 2.10828 4.91667 3.64994 4.91667H4.48328C6.02494 4.91667 6.77494 5.64167 6.77494 7.12501V15.2917C6.77494 16.775 6.02494 17.5 4.48328 17.5ZM3.64994 6.16667C2.74161 6.16667 2.60828 6.38334 2.60828 7.12501V15.2917C2.60828 16.0333 2.74161 16.25 3.64994 16.25H4.48328C5.39161 16.25 5.52494 16.0333 5.52494 15.2917V7.12501C5.52494 6.38334 5.39161 6.16667 4.48328 6.16667H3.64994Z" fill="#4F4F4F"/>
</svg>
