<svg width="20" height="20" viewBox="0 0 20 20" fill="none" xmlns="http://www.w3.org/2000/svg">
<path d="M11.5667 17.1583C10.9084 17.1583 10.1834 16.925 9.45836 16.4667L7.02502 14.9417C6.85836 14.8417 6.66669 14.7833 6.47502 14.7833H5.27502C3.25836 14.7833 2.15002 13.675 2.15002 11.6583V8.32501C2.15002 6.30834 3.25836 5.20001 5.27502 5.20001H6.46669C6.65836 5.20001 6.85002 5.14167 7.01669 5.04167L9.45002 3.51667C10.6667 2.75834 11.85 2.61667 12.7834 3.13334C13.7167 3.65001 14.225 4.72501 14.225 6.16667V13.8083C14.225 15.2417 13.7084 16.325 12.7834 16.8417C12.4167 17.0583 12.0084 17.1583 11.5667 17.1583ZM5.27502 6.45834C3.95836 6.45834 3.40002 7.01667 3.40002 8.33334V11.6667C3.40002 12.9833 3.95836 13.5417 5.27502 13.5417H6.46669C6.90002 13.5417 7.31669 13.6583 7.68336 13.8917L10.1167 15.4167C10.925 15.9167 11.675 16.05 12.1834 15.7667C12.6917 15.4833 12.9834 14.775 12.9834 13.8333V6.17501C12.9834 5.22501 12.6917 4.51667 12.1834 4.24167C11.675 3.95834 10.925 4.08334 10.1167 4.59167L7.68336 6.10834C7.31669 6.34167 6.90002 6.45834 6.46669 6.45834H5.27502Z" fill="#4F4F4F"/>
<path d="M16.1084 13.9583C15.975 13.9583 15.85 13.9167 15.7334 13.8333C15.4584 13.625 15.4 13.2333 15.6084 12.9583C16.9167 11.2167 16.9167 8.78334 15.6084 7.04167C15.4 6.76667 15.4584 6.375 15.7334 6.16667C16.0084 5.95834 16.4 6.01667 16.6084 6.29167C18.25 8.475 18.25 11.525 16.6084 13.7083C16.4917 13.875 16.3 13.9583 16.1084 13.9583Z" fill="#4F4F4F"/>
</svg>
