<svg width="20" height="20" viewBox="0 0 20 20" fill="none" xmlns="http://www.w3.org/2000/svg">
<path d="M14.3666 18.9583H5.63327C3.29994 18.9583 1.81661 17.5667 1.68327 15.2417L1.24994 8.36667C1.18327 7.32501 1.54161 6.32501 2.25827 5.56667C2.96661 4.80834 3.96661 4.37501 4.99994 4.37501C5.26661 4.37501 5.52494 4.21667 5.64994 3.96667L6.24994 2.77501C6.74161 1.80001 7.97494 1.04167 9.04994 1.04167H10.9583C12.0333 1.04167 13.2583 1.80001 13.7499 2.76667L14.3499 3.98334C14.4749 4.21667 14.7249 4.37501 14.9999 4.37501C16.0333 4.37501 17.0333 4.80834 17.7416 5.56667C18.4583 6.33334 18.8166 7.32501 18.7499 8.36667L18.3166 15.25C18.1666 17.6083 16.7249 18.9583 14.3666 18.9583ZM9.04994 2.29167C8.43327 2.29167 7.64994 2.77501 7.36661 3.33334L6.76661 4.53334C6.41661 5.20834 5.74161 5.62501 4.99994 5.62501C4.29994 5.62501 3.64994 5.90834 3.16661 6.41667C2.69161 6.92501 2.44994 7.59167 2.49994 8.28334L2.93327 15.1667C3.03327 16.85 3.94161 17.7083 5.63327 17.7083H14.3666C16.0499 17.7083 16.9583 16.85 17.0666 15.1667L17.4999 8.28334C17.5416 7.59167 17.3083 6.92501 16.8333 6.41667C16.3499 5.90834 15.6999 5.62501 14.9999 5.62501C14.2583 5.62501 13.5833 5.20834 13.2333 4.55001L12.6249 3.33334C12.3499 2.78334 11.5666 2.30001 10.9499 2.30001H9.04994V2.29167Z" fill="#4F4F4F"/>
<path d="M11.25 7.29167H8.75C8.40833 7.29167 8.125 7.00834 8.125 6.66667C8.125 6.32501 8.40833 6.04167 8.75 6.04167H11.25C11.5917 6.04167 11.875 6.32501 11.875 6.66667C11.875 7.00834 11.5917 7.29167 11.25 7.29167Z" fill="#4F4F4F"/>
<path d="M9.99996 15.625C8.15829 15.625 6.66663 14.1333 6.66663 12.2917C6.66663 10.45 8.15829 8.95833 9.99996 8.95833C11.8416 8.95833 13.3333 10.45 13.3333 12.2917C13.3333 14.1333 11.8416 15.625 9.99996 15.625ZM9.99996 10.2083C8.84996 10.2083 7.91663 11.1417 7.91663 12.2917C7.91663 13.4417 8.84996 14.375 9.99996 14.375C11.15 14.375 12.0833 13.4417 12.0833 12.2917C12.0833 11.1417 11.15 10.2083 9.99996 10.2083Z" fill="#4F4F4F"/>
</svg>
