<svg width="108" height="108" viewBox="0 0 108 108" fill="none" xmlns="http://www.w3.org/2000/svg">
<path d="M54 21.375C53.55 21.375 53.1001 21.33 52.6951 21.24C52.2451 21.15 51.84 21.015 51.435 20.88C51.03 20.7 50.6249 20.475 50.2649 20.25C49.9049 19.98 49.545 19.71 49.23 19.395C47.97 18.135 47.25 16.425 47.25 14.625C47.25 12.825 47.97 11.115 49.23 9.85504C49.545 9.54004 49.9049 9.27003 50.2649 9.00003C50.6249 8.77503 51.03 8.55001 51.435 8.41501C51.84 8.23501 52.2451 8.10002 52.6951 8.01002C54.8551 7.56002 57.195 8.28004 58.77 9.85504C60.03 11.115 60.75 12.825 60.75 14.625C60.75 16.425 60.03 18.135 58.77 19.395C57.51 20.655 55.755 21.375 54 21.375Z" fill="#007BFF"/>
<path d="M54 41.625C53.55 41.625 53.1001 41.58 52.6951 41.49C52.2451 41.4 51.84 41.265 51.435 41.13C51.03 40.95 50.6249 40.725 50.2649 40.5C49.9049 40.23 49.545 39.96 49.23 39.645C47.97 38.385 47.25 36.675 47.25 34.875C47.25 33.075 47.97 31.365 49.23 30.105C49.545 29.79 49.9049 29.52 50.2649 29.25C50.6249 29.025 51.03 28.8 51.435 28.665C51.84 28.485 52.2451 28.35 52.6951 28.26C53.5501 28.08 54.4499 28.08 55.3049 28.26C55.7549 28.35 56.16 28.485 56.565 28.665C56.97 28.8 57.3751 29.025 57.7351 29.25C58.0951 29.52 58.455 29.79 58.77 30.105C60.03 31.365 60.75 33.075 60.75 34.875C60.75 36.675 60.03 38.385 58.77 39.645C58.455 39.96 58.0951 40.23 57.7351 40.5C57.3751 40.725 56.97 40.95 56.565 41.13C56.16 41.265 55.7549 41.4 55.3049 41.49C54.8999 41.58 54.45 41.625 54 41.625Z" fill="#007BFF"/>
<path d="M54 59.625C53.55 59.625 53.1001 59.58 52.6951 59.49C52.2451 59.4 51.84 59.265 51.435 59.13C51.03 58.95 50.6249 58.725 50.2649 58.5C49.9049 58.23 49.545 57.96 49.23 57.645C48.915 57.33 48.645 57.015 48.375 56.61C48.15 56.25 47.9249 55.8451 47.7449 55.4401C47.6099 55.0351 47.4751 54.63 47.3851 54.18C47.2951 53.775 47.25 53.325 47.25 52.875C47.25 51.075 47.97 49.365 49.23 48.105C49.545 47.79 49.9049 47.52 50.2649 47.25C50.6249 47.025 51.03 46.8 51.435 46.62C51.84 46.485 52.2451 46.35 52.6951 46.26C54.8551 45.81 57.195 46.53 58.77 48.105C60.03 49.365 60.75 51.075 60.75 52.875C60.75 53.325 60.7049 53.775 60.6149 54.18C60.5249 54.63 60.39 55.0351 60.21 55.4401C60.075 55.8451 59.85 56.25 59.625 56.61C59.355 57.015 59.085 57.33 58.77 57.645C58.455 57.96 58.0951 58.23 57.7351 58.5C57.3751 58.725 56.97 58.95 56.565 59.13C56.16 59.265 55.7549 59.4 55.3049 59.49C54.8999 59.58 54.45 59.625 54 59.625Z" fill="#007BFF"/>
<path d="M54 75.375C52.83 75.375 51.6599 74.8801 50.8049 74.0701C49.9949 73.2151 49.5 72.045 49.5 70.875C49.5 69.705 49.9949 68.535 50.8049 67.68C51.8399 66.645 53.415 66.195 54.855 66.465C55.17 66.51 55.44 66.6 55.71 66.735C55.98 66.825 56.2499 66.96 56.4749 67.14C56.7449 67.32 56.9701 67.5 57.1951 67.68C58.0051 68.535 58.5 69.705 58.5 70.875C58.5 72.045 58.0051 73.2151 57.1951 74.0701C56.9701 74.2501 56.7449 74.43 56.4749 74.61C56.2499 74.79 55.98 74.925 55.71 75.015C55.44 75.15 55.17 75.24 54.855 75.285C54.585 75.33 54.27 75.375 54 75.375Z" fill="#007BFF"/>
<path d="M54 90C53.55 90 53.1001 89.91 52.6951 89.73C52.2901 89.55 51.9299 89.325 51.6149 89.01C51.2999 88.695 51.03 88.335 50.895 87.93C50.715 87.525 50.625 87.075 50.625 86.625C50.625 85.725 50.9849 84.87 51.6149 84.24C51.9299 83.925 52.2901 83.7 52.6951 83.52C53.5501 83.16 54.4499 83.16 55.3049 83.52C55.7099 83.7 56.0701 83.925 56.3851 84.24C56.7001 84.555 56.925 84.915 57.105 85.32C57.285 85.725 57.375 86.175 57.375 86.625C57.375 87.075 57.285 87.525 57.105 87.93C56.925 88.335 56.7001 88.695 56.3851 89.01C56.0701 89.325 55.7099 89.55 55.3049 89.73C54.8549 89.91 54.45 90 54 90Z" fill="#007BFF"/>
<path d="M54 99.315C53.415 99.315 52.8301 99.09 52.4251 98.64C51.9751 98.235 51.75 97.65 51.75 97.065C51.75 96.48 51.9751 95.895 52.4251 95.49C53.2351 94.635 54.7649 94.635 55.5749 95.49C56.0249 95.895 56.25 96.48 56.25 97.065C56.25 97.65 56.0249 98.235 55.5749 98.64C55.1699 99.09 54.585 99.315 54 99.315Z" fill="#007BFF"/>
<path d="M15.75 41.625C13.95 41.625 12.24 40.905 10.98 39.645C9.72001 38.385 9 36.675 9 34.875C9 33.12 9.72001 31.365 10.98 30.105C13.455 27.585 18 27.585 20.52 30.105C21.78 31.365 22.5 33.12 22.5 34.875C22.5 36.675 21.78 38.385 20.52 39.645C20.205 39.96 19.8451 40.23 19.4851 40.5C19.1251 40.725 18.72 40.95 18.315 41.085C17.91 41.265 17.5049 41.4 17.0549 41.49C16.6499 41.58 16.2 41.625 15.75 41.625Z" fill="#007BFF"/>
<path d="M92.25 41.625C90.495 41.625 88.74 40.905 87.48 39.645C86.22 38.385 85.5 36.63 85.5 34.875C85.5 34.425 85.5451 33.975 85.6351 33.57C85.7251 33.12 85.8599 32.715 85.9949 32.31C86.1749 31.905 86.4 31.5 86.625 31.14C86.895 30.78 87.165 30.42 87.48 30.105C87.795 29.79 88.1549 29.52 88.5149 29.25C88.8749 29.025 89.28 28.8 89.685 28.665C90.09 28.485 90.4951 28.35 90.9451 28.26C91.8001 28.08 92.6999 28.08 93.5549 28.26C94.0049 28.35 94.41 28.485 94.815 28.665C95.22 28.8 95.6251 29.025 95.9851 29.25C96.3451 29.52 96.705 29.79 97.02 30.105C97.335 30.42 97.605 30.78 97.875 31.14C98.1 31.5 98.325 31.905 98.46 32.31C98.64 32.715 98.7749 33.12 98.8649 33.57C98.9549 33.975 99 34.425 99 34.875C99 36.675 98.28 38.385 97.02 39.645C96.705 39.96 96.3451 40.23 95.9851 40.5C95.6251 40.725 95.22 40.95 94.815 41.13C94.41 41.265 94.0049 41.4 93.5549 41.49C93.1049 41.58 92.7 41.625 92.25 41.625Z" fill="#007BFF"/>
<path d="M92.25 57.375C91.98 57.375 91.665 57.33 91.395 57.285C91.08 57.24 90.81 57.15 90.54 57.015C90.27 56.925 90 56.79 89.73 56.61C89.505 56.475 89.2799 56.25 89.0549 56.07C88.8749 55.845 88.6499 55.62 88.5149 55.395C88.3349 55.125 88.2001 54.855 88.1101 54.585C87.9751 54.315 87.8851 54.045 87.8401 53.775C87.7951 53.46 87.75 53.19 87.75 52.875C87.75 51.705 88.2449 50.5349 89.0549 49.6799C89.2799 49.4999 89.505 49.32 89.73 49.14C90 48.96 90.27 48.825 90.54 48.735C90.81 48.6 91.08 48.51 91.395 48.465C91.935 48.33 92.52 48.33 93.105 48.465C93.42 48.51 93.69 48.6 93.96 48.735C94.23 48.825 94.4999 48.96 94.7249 49.14C94.9949 49.32 95.2201 49.4999 95.4451 49.6799C96.2551 50.5349 96.75 51.705 96.75 52.875C96.75 53.19 96.7049 53.46 96.6599 53.775C96.6149 54.045 96.5249 54.315 96.3899 54.585C96.2999 54.855 96.1651 55.125 95.9851 55.395C95.8051 55.62 95.6251 55.845 95.4451 56.07C95.2201 56.25 94.9949 56.475 94.7249 56.61C94.4999 56.79 94.23 56.925 93.96 57.015C93.69 57.15 93.42 57.24 93.105 57.285C92.835 57.33 92.52 57.375 92.25 57.375Z" fill="#007BFF"/>
<path d="M15.75 57.375C14.58 57.375 13.4099 56.88 12.5549 56.07C11.7449 55.215 11.25 54.045 11.25 52.875C11.25 51.705 11.7449 50.535 12.5549 49.68C13.8149 48.42 15.795 48.015 17.46 48.735C18.045 48.96 18.4951 49.275 18.9451 49.68C19.7551 50.535 20.25 51.705 20.25 52.875C20.25 54.045 19.7551 55.215 18.9451 56.07C18.0901 56.88 16.92 57.375 15.75 57.375Z" fill="#007BFF"/>
<path d="M92.25 69.75C91.35 69.75 90.4949 69.39 89.8649 68.76C89.2349 68.13 88.875 67.275 88.875 66.375C88.875 65.925 88.965 65.5201 89.145 65.0701C89.325 64.6651 89.5499 64.305 89.8649 63.99C90.8099 63.045 92.2949 62.73 93.5549 63.27C93.9599 63.45 94.3201 63.675 94.6351 63.99C94.9501 64.305 95.175 64.6651 95.355 65.0701C95.535 65.5201 95.625 65.925 95.625 66.375C95.625 67.275 95.2651 68.13 94.6351 68.76C94.3201 69.075 93.9599 69.3 93.5549 69.48C93.1049 69.66 92.7 69.75 92.25 69.75Z" fill="#007BFF"/>
<path d="M15.75 69.75C14.85 69.75 13.9949 69.39 13.3649 68.76C13.0499 68.445 12.78 68.0849 12.645 67.6799C12.465 67.2749 12.375 66.825 12.375 66.375C12.375 65.925 12.465 65.52 12.645 65.07C12.78 64.665 13.0499 64.305 13.3649 63.99C14.5799 62.73 16.8751 62.73 18.1351 63.99C18.4501 64.305 18.675 64.665 18.855 65.07C19.035 65.52 19.125 65.925 19.125 66.375C19.125 66.825 19.035 67.2749 18.855 67.6799C18.675 68.0849 18.4501 68.445 18.1351 68.76C17.5051 69.39 16.65 69.75 15.75 69.75Z" fill="#007BFF"/>
<path d="M92.25 81C91.935 81 91.665 80.955 91.395 80.82C91.125 80.73 90.8551 80.55 90.6751 80.325C90.2251 79.92 90 79.335 90 78.75C90 78.165 90.2251 77.58 90.6751 77.175C91.4851 76.32 93.0149 76.32 93.8249 77.175C94.2749 77.58 94.5 78.165 94.5 78.75C94.5 79.335 94.2749 79.92 93.8249 80.325C93.4199 80.775 92.835 81 92.25 81Z" fill="#007BFF"/>
<path d="M15.75 81C15.165 81 14.5801 80.775 14.1751 80.325C13.7251 79.92 13.5 79.335 13.5 78.75C13.5 78.165 13.7251 77.58 14.1751 77.175C14.9851 76.32 16.5149 76.32 17.3249 77.175C17.7749 77.58 18 78.165 18 78.75C18 79.335 17.7749 79.92 17.3249 80.325C16.9199 80.775 16.335 81 15.75 81Z" fill="#007BFF"/>
<path d="M34.875 31.5C34.425 31.5 33.9751 31.455 33.5701 31.365C33.1201 31.275 32.715 31.14 32.31 30.96C31.86 30.825 31.4999 30.6 31.1399 30.375C30.7349 30.105 30.42 29.835 30.105 29.52C28.845 28.26 28.125 26.505 28.125 24.75C28.125 22.995 28.845 21.24 30.105 19.98C32.625 17.46 37.125 17.46 39.645 19.98C40.905 21.24 41.625 22.95 41.625 24.75C41.625 26.55 40.905 28.26 39.645 29.52C39.33 29.835 38.9701 30.105 38.6101 30.375C38.2501 30.6 37.845 30.825 37.44 30.96C37.035 31.14 36.6299 31.275 36.1799 31.365C35.7749 31.455 35.325 31.5 34.875 31.5Z" fill="#007BFF"/>
<path d="M73.125 31.5C72.675 31.5 72.2251 31.455 71.8201 31.365C71.3701 31.275 70.965 31.14 70.56 30.96C70.155 30.825 69.7499 30.6 69.3899 30.375C69.0299 30.105 68.67 29.835 68.355 29.52C68.04 29.205 67.77 28.845 67.5 28.485C67.275 28.125 67.0499 27.72 66.8699 27.315C66.7349 26.91 66.6001 26.505 66.5101 26.055C66.4201 25.65 66.375 25.2 66.375 24.75C66.375 22.995 67.095 21.24 68.355 19.98C68.67 19.665 69.0299 19.395 69.3899 19.125C69.7499 18.9 70.155 18.675 70.56 18.54C70.965 18.36 71.3701 18.225 71.8201 18.135C72.6751 17.955 73.5749 17.955 74.4299 18.135C74.8799 18.225 75.285 18.36 75.69 18.54C76.095 18.675 76.5001 18.9 76.8601 19.125C77.2201 19.395 77.58 19.665 77.895 19.98C79.155 21.24 79.875 22.995 79.875 24.75C79.875 25.2 79.8299 25.65 79.7399 26.055C79.6499 26.505 79.5151 26.91 79.3801 27.315C79.2001 27.72 78.975 28.125 78.75 28.485C78.48 28.845 78.21 29.205 77.895 29.52C77.58 29.835 77.2201 30.105 76.8601 30.375C76.5001 30.6 76.095 30.825 75.69 30.96C75.285 31.14 74.8799 31.275 74.4299 31.365C74.0249 31.455 73.575 31.5 73.125 31.5Z" fill="#007BFF"/>
<path d="M34.875 50.625C34.425 50.625 33.9751 50.58 33.5701 50.49C33.1201 50.4 32.715 50.265 32.31 50.13C31.905 49.95 31.4999 49.725 31.1399 49.5C30.7349 49.23 30.42 48.96 30.105 48.645C28.845 47.385 28.125 45.63 28.125 43.875C28.125 42.075 28.845 40.365 30.105 39.105C32.625 36.585 37.125 36.585 39.645 39.105C40.905 40.365 41.625 42.075 41.625 43.875C41.625 45.675 40.905 47.385 39.645 48.645C38.385 49.905 36.63 50.625 34.875 50.625Z" fill="#007BFF"/>
<path d="M73.125 50.625C72.675 50.625 72.2251 50.58 71.8201 50.49C71.3701 50.4 70.965 50.265 70.56 50.085C70.155 49.95 69.7499 49.725 69.3899 49.5C69.0299 49.23 68.67 48.96 68.355 48.645C68.04 48.33 67.77 47.97 67.5 47.61C67.275 47.25 67.0499 46.845 66.8699 46.44C66.7349 46.035 66.6001 45.63 66.5101 45.18C66.4201 44.775 66.375 44.325 66.375 43.875C66.375 42.12 67.095 40.365 68.355 39.105C68.67 38.79 69.0299 38.52 69.3899 38.25C69.7499 38.025 70.155 37.8 70.56 37.665C70.965 37.485 71.3701 37.35 71.8201 37.26C72.6751 37.08 73.5749 37.08 74.4299 37.26C74.8799 37.35 75.285 37.485 75.69 37.665C76.095 37.8 76.5001 38.025 76.8601 38.25C77.2201 38.52 77.58 38.79 77.895 39.105C79.155 40.365 79.875 42.12 79.875 43.875C79.875 44.325 79.8299 44.775 79.7399 45.18C79.6499 45.63 79.5151 46.035 79.3801 46.44C79.2001 46.845 78.975 47.25 78.75 47.61C78.48 47.97 78.21 48.33 77.895 48.645C77.58 48.96 77.2201 49.23 76.8601 49.5C76.5001 49.725 76.095 49.95 75.69 50.085C75.285 50.265 74.8799 50.4 74.4299 50.49C74.0249 50.58 73.575 50.625 73.125 50.625Z" fill="#007BFF"/>
<path d="M34.875 66.375C34.29 66.375 33.705 66.24 33.165 66.015C32.58 65.79 32.0849 65.475 31.6799 65.07C31.2749 64.62 30.9601 64.125 30.7351 63.585C30.5101 63.045 30.375 62.46 30.375 61.875C30.375 60.705 30.8699 59.535 31.6799 58.68C33.3449 57.015 36.4051 57.015 38.0701 58.68C38.8801 59.535 39.375 60.705 39.375 61.875C39.375 62.46 39.2399 63.045 39.0149 63.585C38.7899 64.125 38.4751 64.62 38.0701 65.07C37.2151 65.88 36.045 66.375 34.875 66.375Z" fill="#007BFF"/>
<path d="M73.125 66.375C71.955 66.375 70.7849 65.88 69.9299 65.07C69.1199 64.215 68.625 63.045 68.625 61.875C68.625 60.705 69.1199 59.535 69.9299 58.68C71.5949 57.015 74.6101 57.015 76.3201 58.68C77.1301 59.535 77.625 60.705 77.625 61.875C77.625 62.19 77.5799 62.46 77.5349 62.775C77.4899 63.045 77.3999 63.315 77.2649 63.585C77.1749 63.855 77.0401 64.125 76.8601 64.35C76.6801 64.62 76.5001 64.845 76.3201 65.07C75.4651 65.88 74.295 66.375 73.125 66.375Z" fill="#007BFF"/>
<path d="M34.875 79.875C33.975 79.875 33.1199 79.515 32.4899 78.885C32.1749 78.57 31.95 78.21 31.77 77.805C31.59 77.4 31.5 76.95 31.5 76.5C31.5 76.05 31.59 75.645 31.77 75.195C31.95 74.79 32.1749 74.43 32.4899 74.115C32.8049 73.8 33.1651 73.575 33.5701 73.395C34.3801 73.035 35.3249 73.035 36.1799 73.395C36.5849 73.575 36.9451 73.8 37.2601 74.115C37.8901 74.745 38.25 75.6 38.25 76.5C38.25 76.95 38.16 77.4 37.98 77.805C37.8 78.21 37.5751 78.57 37.2601 78.885C36.6301 79.515 35.775 79.875 34.875 79.875Z" fill="#007BFF"/>
<path d="M73.125 79.875C72.675 79.875 72.2251 79.785 71.8201 79.605C71.4151 79.425 71.0549 79.2 70.7399 78.885C70.4249 78.57 70.155 78.21 70.02 77.805C69.84 77.4 69.75 76.95 69.75 76.5C69.75 76.05 69.84 75.6 70.02 75.195C70.2 74.79 70.4249 74.43 70.7399 74.115C71.0549 73.8 71.4151 73.575 71.8201 73.395C72.6301 73.035 73.5749 73.035 74.4299 73.395C74.8349 73.575 75.1951 73.8 75.5101 74.115C75.8251 74.43 76.05 74.79 76.23 75.195C76.41 75.6 76.5 76.05 76.5 76.5C76.5 76.95 76.41 77.4 76.23 77.805C76.05 78.21 75.8251 78.57 75.5101 78.885C74.8801 79.515 74.025 79.875 73.125 79.875Z" fill="#007BFF"/>
<path d="M34.875 90C34.29 90 33.7051 89.775 33.3001 89.325C32.8501 88.92 32.625 88.335 32.625 87.75C32.625 87.165 32.8501 86.58 33.3001 86.175C34.1101 85.32 35.6399 85.32 36.4499 86.175C36.8999 86.58 37.125 87.165 37.125 87.75C37.125 88.335 36.8999 88.92 36.4499 89.325C36.0449 89.775 35.46 90 34.875 90Z" fill="#007BFF"/>
<path d="M73.125 90C72.81 90 72.54 89.955 72.27 89.82C72 89.73 71.7301 89.55 71.5501 89.325C71.3251 89.145 71.1449 88.875 71.0549 88.605C70.9199 88.335 70.875 88.065 70.875 87.75C70.875 87.165 71.1001 86.58 71.5501 86.175C72.3601 85.32 73.8899 85.32 74.6999 86.175C75.1499 86.58 75.375 87.165 75.375 87.75C75.375 88.065 75.3301 88.335 75.1951 88.605C75.1051 88.875 74.9249 89.145 74.6999 89.325C74.2949 89.775 73.71 90 73.125 90Z" fill="#007BFF"/>
</svg>
