<svg width="24" height="25" viewBox="0 0 24 25" fill="none" xmlns="http://www.w3.org/2000/svg">
<path d="M12 5.25001C11.9 5.25001 11.8 5.24001 11.71 5.22001C11.61 5.20001 11.52 5.17001 11.43 5.14001C11.34 5.10001 11.25 5.05001 11.17 5.00001C11.09 4.94001 11.01 4.88 10.94 4.81C10.66 4.53 10.5 4.15001 10.5 3.75001C10.5 3.35001 10.66 2.97001 10.94 2.69001C11.01 2.62001 11.09 2.56001 11.17 2.50001C11.25 2.45001 11.34 2.4 11.43 2.37C11.52 2.33 11.61 2.3 11.71 2.28C12.19 2.18 12.71 2.34001 13.06 2.69001C13.34 2.97001 13.5 3.35001 13.5 3.75001C13.5 4.15001 13.34 4.53 13.06 4.81C12.78 5.09 12.39 5.25001 12 5.25001Z" fill="#4F4F4F"/>
<path d="M12 9.75C11.9 9.75 11.8 9.74 11.71 9.72C11.61 9.7 11.52 9.67 11.43 9.64C11.34 9.6 11.25 9.55 11.17 9.5C11.09 9.44 11.01 9.38 10.94 9.31C10.66 9.03 10.5 8.65 10.5 8.25C10.5 7.85 10.66 7.47 10.94 7.19C11.01 7.12 11.09 7.06 11.17 7C11.25 6.95 11.34 6.9 11.43 6.87C11.52 6.83 11.61 6.8 11.71 6.78C11.9 6.74 12.1 6.74 12.29 6.78C12.39 6.8 12.48 6.83 12.57 6.87C12.66 6.9 12.75 6.95 12.83 7C12.91 7.06 12.99 7.12 13.06 7.19C13.34 7.47 13.5 7.85 13.5 8.25C13.5 8.65 13.34 9.03 13.06 9.31C12.99 9.38 12.91 9.44 12.83 9.5C12.75 9.55 12.66 9.6 12.57 9.64C12.48 9.67 12.39 9.7 12.29 9.72C12.2 9.74 12.1 9.75 12 9.75Z" fill="#4F4F4F"/>
<path d="M12 13.75C11.9 13.75 11.8 13.74 11.71 13.72C11.61 13.7 11.52 13.67 11.43 13.64C11.34 13.6 11.25 13.55 11.17 13.5C11.09 13.44 11.01 13.38 10.94 13.31C10.87 13.24 10.81 13.17 10.75 13.08C10.7 13 10.65 12.91 10.61 12.82C10.58 12.73 10.55 12.64 10.53 12.54C10.51 12.45 10.5 12.35 10.5 12.25C10.5 11.85 10.66 11.47 10.94 11.19C11.01 11.12 11.09 11.06 11.17 11C11.25 10.95 11.34 10.9 11.43 10.86C11.52 10.83 11.61 10.8 11.71 10.78C12.19 10.68 12.71 10.84 13.06 11.19C13.34 11.47 13.5 11.85 13.5 12.25C13.5 12.35 13.49 12.45 13.47 12.54C13.45 12.64 13.42 12.73 13.38 12.82C13.35 12.91 13.3 13 13.25 13.08C13.19 13.17 13.13 13.24 13.06 13.31C12.99 13.38 12.91 13.44 12.83 13.5C12.75 13.55 12.66 13.6 12.57 13.64C12.48 13.67 12.39 13.7 12.29 13.72C12.2 13.74 12.1 13.75 12 13.75Z" fill="#4F4F4F"/>
<path d="M12 17.25C11.74 17.25 11.48 17.14 11.29 16.96C11.11 16.77 11 16.51 11 16.25C11 15.99 11.11 15.73 11.29 15.54C11.52 15.31 11.87 15.21 12.19 15.27C12.26 15.28 12.32 15.3 12.38 15.33C12.44 15.35 12.5 15.38 12.55 15.42C12.61 15.46 12.66 15.5 12.71 15.54C12.89 15.73 13 15.99 13 16.25C13 16.51 12.89 16.77 12.71 16.96C12.66 17 12.61 17.04 12.55 17.08C12.5 17.12 12.44 17.15 12.38 17.17C12.32 17.2 12.26 17.22 12.19 17.23C12.13 17.24 12.06 17.25 12 17.25Z" fill="#4F4F4F"/>
<path d="M12 20.5C11.9 20.5 11.8 20.48 11.71 20.44C11.62 20.4 11.54 20.35 11.47 20.28C11.4 20.21 11.34 20.13 11.31 20.04C11.27 19.95 11.25 19.85 11.25 19.75C11.25 19.55 11.33 19.36 11.47 19.22C11.54 19.15 11.62 19.1 11.71 19.06C11.9 18.98 12.1 18.98 12.29 19.06C12.38 19.1 12.46 19.15 12.53 19.22C12.6 19.29 12.65 19.37 12.69 19.46C12.73 19.55 12.75 19.65 12.75 19.75C12.75 19.85 12.73 19.95 12.69 20.04C12.65 20.13 12.6 20.21 12.53 20.28C12.46 20.35 12.38 20.4 12.29 20.44C12.19 20.48 12.1 20.5 12 20.5Z" fill="#4F4F4F"/>
<path d="M12 22.57C11.87 22.57 11.74 22.52 11.65 22.42C11.55 22.33 11.5 22.2 11.5 22.07C11.5 21.94 11.55 21.81 11.65 21.72C11.83 21.53 12.17 21.53 12.35 21.72C12.45 21.81 12.5 21.94 12.5 22.07C12.5 22.2 12.45 22.33 12.35 22.42C12.26 22.52 12.13 22.57 12 22.57Z" fill="#4F4F4F"/>
<path d="M3.5 9.75002C3.1 9.75002 2.72 9.59001 2.44 9.31001C2.16 9.03001 2 8.65002 2 8.25002C2 7.86002 2.16 7.47002 2.44 7.19002C2.99 6.63002 4 6.63002 4.56 7.19002C4.84 7.47002 5 7.86002 5 8.25002C5 8.65002 4.84 9.03001 4.56 9.31001C4.49 9.38001 4.41002 9.44002 4.33002 9.50002C4.25002 9.55002 4.16001 9.60002 4.07001 9.63002C3.98001 9.67002 3.88998 9.70002 3.78998 9.72002C3.69998 9.74002 3.6 9.75002 3.5 9.75002Z" fill="#4F4F4F"/>
<path d="M20.5 9.75C20.11 9.75 19.72 9.59 19.44 9.31C19.16 9.03 19 8.64 19 8.25C19 8.15 19.01 8.05001 19.03 7.96001C19.05 7.86001 19.08 7.76999 19.11 7.67999C19.15 7.58999 19.2 7.5 19.25 7.42C19.31 7.34 19.37 7.26 19.44 7.19C19.51 7.12 19.59 7.06 19.67 7C19.75 6.95 19.84 6.9 19.93 6.87C20.02 6.83 20.11 6.8 20.21 6.78C20.4 6.74 20.6 6.74 20.79 6.78C20.89 6.8 20.98 6.83 21.07 6.87C21.16 6.9 21.25 6.95 21.33 7C21.41 7.06 21.49 7.12 21.56 7.19C21.63 7.26 21.69 7.34 21.75 7.42C21.8 7.5 21.85 7.58999 21.88 7.67999C21.92 7.76999 21.95 7.86001 21.97 7.96001C21.99 8.05001 22 8.15 22 8.25C22 8.65 21.84 9.03 21.56 9.31C21.49 9.38 21.41 9.44 21.33 9.5C21.25 9.55 21.16 9.6 21.07 9.64C20.98 9.67 20.89 9.7 20.79 9.72C20.69 9.74 20.6 9.75 20.5 9.75Z" fill="#4F4F4F"/>
<path d="M20.5 13.25C20.44 13.25 20.37 13.24 20.31 13.23C20.24 13.22 20.18 13.2 20.12 13.17C20.06 13.15 20 13.12 19.94 13.08C19.89 13.05 19.84 13 19.79 12.96C19.75 12.91 19.7 12.86 19.67 12.81C19.63 12.75 19.6 12.69 19.58 12.63C19.55 12.57 19.53 12.51 19.52 12.45C19.51 12.38 19.5 12.32 19.5 12.25C19.5 11.99 19.61 11.73 19.79 11.54C19.84 11.5 19.89 11.46 19.94 11.42C20 11.38 20.06 11.35 20.12 11.33C20.18 11.3 20.24 11.28 20.31 11.27C20.43 11.24 20.56 11.24 20.69 11.27C20.76 11.28 20.82 11.3 20.88 11.33C20.94 11.35 21 11.38 21.05 11.42C21.11 11.46 21.16 11.5 21.21 11.54C21.39 11.73 21.5 11.99 21.5 12.25C21.5 12.32 21.49 12.38 21.48 12.45C21.47 12.51 21.45 12.57 21.42 12.63C21.4 12.69 21.37 12.75 21.33 12.81C21.29 12.86 21.25 12.91 21.21 12.96C21.16 13 21.11 13.05 21.05 13.08C21 13.12 20.94 13.15 20.88 13.17C20.82 13.2 20.76 13.22 20.69 13.23C20.63 13.24 20.56 13.25 20.5 13.25Z" fill="#4F4F4F"/>
<path d="M3.5 13.25C3.24 13.25 2.97998 13.14 2.78998 12.96C2.60998 12.77 2.5 12.51 2.5 12.25C2.5 11.99 2.60998 11.73 2.78998 11.54C3.06998 11.26 3.51 11.17 3.88 11.33C4.01 11.38 4.11002 11.45 4.21002 11.54C4.39002 11.73 4.5 11.99 4.5 12.25C4.5 12.51 4.39002 12.77 4.21002 12.96C4.02002 13.14 3.76 13.25 3.5 13.25Z" fill="#4F4F4F"/>
<path d="M20.5 16C20.3 16 20.11 15.92 19.97 15.78C19.83 15.64 19.75 15.45 19.75 15.25C19.75 15.15 19.77 15.06 19.81 14.96C19.85 14.87 19.9 14.79 19.97 14.72C20.18 14.51 20.51 14.44 20.79 14.56C20.88 14.6 20.96 14.65 21.03 14.72C21.1 14.79 21.15 14.87 21.19 14.96C21.23 15.06 21.25 15.15 21.25 15.25C21.25 15.45 21.17 15.64 21.03 15.78C20.96 15.85 20.88 15.9 20.79 15.94C20.69 15.98 20.6 16 20.5 16Z" fill="#4F4F4F"/>
<path d="M3.5 16C3.3 16 3.10997 15.92 2.96997 15.78C2.89997 15.71 2.84 15.63 2.81 15.54C2.77 15.45 2.75 15.35 2.75 15.25C2.75 15.15 2.77 15.06 2.81 14.96C2.84 14.87 2.89997 14.79 2.96997 14.72C3.23997 14.44 3.75003 14.44 4.03003 14.72C4.10003 14.79 4.15 14.87 4.19 14.96C4.23 15.06 4.25 15.15 4.25 15.25C4.25 15.35 4.23 15.45 4.19 15.54C4.15 15.63 4.10003 15.71 4.03003 15.78C3.89003 15.92 3.7 16 3.5 16Z" fill="#4F4F4F"/>
<path d="M20.5 18.5C20.43 18.5 20.37 18.49 20.31 18.46C20.25 18.44 20.19 18.4 20.15 18.35C20.05 18.26 20 18.13 20 18C20 17.87 20.05 17.74 20.15 17.65C20.33 17.46 20.67 17.46 20.85 17.65C20.95 17.74 21 17.87 21 18C21 18.13 20.95 18.26 20.85 18.35C20.76 18.45 20.63 18.5 20.5 18.5Z" fill="#4F4F4F"/>
<path d="M3.5 18.5C3.37 18.5 3.24002 18.45 3.15002 18.35C3.05002 18.26 3 18.13 3 18C3 17.87 3.05002 17.74 3.15002 17.65C3.33002 17.46 3.66998 17.46 3.84998 17.65C3.94998 17.74 4 17.87 4 18C4 18.13 3.94998 18.26 3.84998 18.35C3.75998 18.45 3.63 18.5 3.5 18.5Z" fill="#4F4F4F"/>
<path d="M7.75 7.50002C7.65 7.50002 7.55002 7.49002 7.46002 7.47002C7.36002 7.45002 7.26999 7.42002 7.17999 7.38002C7.07999 7.35002 6.99998 7.30002 6.91998 7.25002C6.82998 7.19002 6.76 7.13001 6.69 7.06001C6.41 6.78001 6.25 6.39002 6.25 6.00002C6.25 5.61002 6.41 5.22002 6.69 4.94002C7.25 4.38002 8.25 4.38002 8.81 4.94002C9.09 5.22002 9.25 5.60002 9.25 6.00002C9.25 6.40002 9.09 6.78001 8.81 7.06001C8.74 7.13001 8.66002 7.19002 8.58002 7.25002C8.50002 7.30002 8.41001 7.35002 8.32001 7.38002C8.23001 7.42002 8.13998 7.45002 8.03998 7.47002C7.94998 7.49002 7.85 7.50002 7.75 7.50002Z" fill="#4F4F4F"/>
<path d="M16.25 7.5C16.15 7.5 16.05 7.49 15.96 7.47C15.86 7.45 15.77 7.42001 15.68 7.38001C15.59 7.35001 15.5 7.3 15.42 7.25C15.34 7.19 15.26 7.13 15.19 7.06C15.12 6.99 15.06 6.91 15 6.83C14.95 6.75 14.9 6.66001 14.86 6.57001C14.83 6.48001 14.8 6.38999 14.78 6.28999C14.76 6.19999 14.75 6.1 14.75 6C14.75 5.61 14.91 5.22 15.19 4.94C15.26 4.87 15.34 4.81 15.42 4.75C15.5 4.7 15.59 4.65 15.68 4.62C15.77 4.58 15.86 4.55 15.96 4.53C16.15 4.49 16.35 4.49 16.54 4.53C16.64 4.55 16.73 4.58 16.82 4.62C16.91 4.65 17 4.7 17.08 4.75C17.16 4.81 17.24 4.87 17.31 4.94C17.59 5.22 17.75 5.61 17.75 6C17.75 6.1 17.74 6.19999 17.72 6.28999C17.7 6.38999 17.67 6.48001 17.64 6.57001C17.6 6.66001 17.55 6.75 17.5 6.83C17.44 6.91 17.38 6.99 17.31 7.06C17.24 7.13 17.16 7.19 17.08 7.25C17 7.3 16.91 7.35001 16.82 7.38001C16.73 7.42001 16.64 7.45 16.54 7.47C16.45 7.49 16.35 7.5 16.25 7.5Z" fill="#4F4F4F"/>
<path d="M7.75 11.75C7.65 11.75 7.55002 11.74 7.46002 11.72C7.36002 11.7 7.26999 11.67 7.17999 11.64C7.08999 11.6 6.99998 11.55 6.91998 11.5C6.82998 11.44 6.76 11.38 6.69 11.31C6.41 11.03 6.25 10.64 6.25 10.25C6.25 9.85002 6.41 9.47002 6.69 9.19002C7.25 8.63002 8.25 8.63002 8.81 9.19002C9.09 9.47002 9.25 9.85002 9.25 10.25C9.25 10.65 9.09 11.03 8.81 11.31C8.53 11.59 8.14 11.75 7.75 11.75Z" fill="#4F4F4F"/>
<path d="M16.25 11.75C16.15 11.75 16.05 11.74 15.96 11.72C15.86 11.7 15.77 11.67 15.68 11.63C15.59 11.6 15.5 11.55 15.42 11.5C15.34 11.44 15.26 11.38 15.19 11.31C15.12 11.24 15.06 11.16 15 11.08C14.95 11 14.9 10.91 14.86 10.82C14.83 10.73 14.8 10.64 14.78 10.54C14.76 10.45 14.75 10.35 14.75 10.25C14.75 9.86 14.91 9.47 15.19 9.19C15.26 9.12 15.34 9.06 15.42 9C15.5 8.95 15.59 8.9 15.68 8.87C15.77 8.83 15.86 8.8 15.96 8.78C16.15 8.74 16.35 8.74 16.54 8.78C16.64 8.8 16.73 8.83 16.82 8.87C16.91 8.9 17 8.95 17.08 9C17.16 9.06 17.24 9.12 17.31 9.19C17.59 9.47 17.75 9.86 17.75 10.25C17.75 10.35 17.74 10.45 17.72 10.54C17.7 10.64 17.67 10.73 17.64 10.82C17.6 10.91 17.55 11 17.5 11.08C17.44 11.16 17.38 11.24 17.31 11.31C17.24 11.38 17.16 11.44 17.08 11.5C17 11.55 16.91 11.6 16.82 11.63C16.73 11.67 16.64 11.7 16.54 11.72C16.45 11.74 16.35 11.75 16.25 11.75Z" fill="#4F4F4F"/>
<path d="M7.75 15.25C7.62 15.25 7.49 15.22 7.37 15.17C7.24 15.12 7.12998 15.05 7.03998 14.96C6.94998 14.86 6.88002 14.75 6.83002 14.63C6.78002 14.51 6.75 14.38 6.75 14.25C6.75 13.99 6.85998 13.73 7.03998 13.54C7.40998 13.17 8.09002 13.17 8.46002 13.54C8.64002 13.73 8.75 13.99 8.75 14.25C8.75 14.38 8.71998 14.51 8.66998 14.63C8.61998 14.75 8.55002 14.86 8.46002 14.96C8.27002 15.14 8.01 15.25 7.75 15.25Z" fill="#4F4F4F"/>
<path d="M16.25 15.25C15.99 15.25 15.73 15.14 15.54 14.96C15.36 14.77 15.25 14.51 15.25 14.25C15.25 13.99 15.36 13.73 15.54 13.54C15.91 13.17 16.58 13.17 16.96 13.54C17.14 13.73 17.25 13.99 17.25 14.25C17.25 14.32 17.24 14.38 17.23 14.45C17.22 14.51 17.2 14.57 17.17 14.63C17.15 14.69 17.12 14.75 17.08 14.8C17.04 14.86 17 14.91 16.96 14.96C16.77 15.14 16.51 15.25 16.25 15.25Z" fill="#4F4F4F"/>
<path d="M7.75 18.25C7.55 18.25 7.35997 18.17 7.21997 18.03C7.14997 17.96 7.1 17.88 7.06 17.79C7.02 17.7 7 17.6 7 17.5C7 17.4 7.02 17.31 7.06 17.21C7.1 17.12 7.14997 17.04 7.21997 16.97C7.28997 16.9 7.37002 16.85 7.46002 16.81C7.64002 16.73 7.84998 16.73 8.03998 16.81C8.12998 16.85 8.21003 16.9 8.28003 16.97C8.42003 17.11 8.5 17.3 8.5 17.5C8.5 17.6 8.48 17.7 8.44 17.79C8.4 17.88 8.35003 17.96 8.28003 18.03C8.14003 18.17 7.95 18.25 7.75 18.25Z" fill="#4F4F4F"/>
<path d="M16.25 18.25C16.15 18.25 16.05 18.23 15.96 18.19C15.87 18.15 15.79 18.1 15.72 18.03C15.65 17.96 15.59 17.88 15.56 17.79C15.52 17.7 15.5 17.6 15.5 17.5C15.5 17.4 15.52 17.3 15.56 17.21C15.6 17.12 15.65 17.04 15.72 16.97C15.79 16.9 15.87 16.85 15.96 16.81C16.14 16.73 16.35 16.73 16.54 16.81C16.63 16.85 16.71 16.9 16.78 16.97C16.85 17.04 16.9 17.12 16.94 17.21C16.98 17.3 17 17.4 17 17.5C17 17.6 16.98 17.7 16.94 17.79C16.9 17.88 16.85 17.96 16.78 18.03C16.64 18.17 16.45 18.25 16.25 18.25Z" fill="#4F4F4F"/>
<path d="M7.75 20.5C7.62 20.5 7.49002 20.45 7.40002 20.35C7.30002 20.26 7.25 20.13 7.25 20C7.25 19.87 7.30002 19.74 7.40002 19.65C7.58002 19.46 7.91998 19.46 8.09998 19.65C8.19998 19.74 8.25 19.87 8.25 20C8.25 20.13 8.19998 20.26 8.09998 20.35C8.00998 20.45 7.88 20.5 7.75 20.5Z" fill="#4F4F4F"/>
<path d="M16.25 20.5C16.18 20.5 16.12 20.49 16.06 20.46C16 20.44 15.94 20.4 15.9 20.35C15.85 20.31 15.81 20.25 15.79 20.19C15.76 20.13 15.75 20.07 15.75 20C15.75 19.87 15.8 19.74 15.9 19.65C16.08 19.46 16.42 19.46 16.6 19.65C16.7 19.74 16.75 19.87 16.75 20C16.75 20.07 16.74 20.13 16.71 20.19C16.69 20.25 16.65 20.31 16.6 20.35C16.51 20.45 16.38 20.5 16.25 20.5Z" fill="#4F4F4F"/>
</svg>
